name ./resultDataOpenSim/trcMotMarkerGrf/sub09/grf-12-04.mot
datacolumns 19
datarows 12
range 0.48000000 0.52400000
endheader

                time	     ground_force_vx	     ground_force_vy	     ground_force_vz	     ground_force_px	     ground_force_py	     ground_force_pz	   l_ground_force_vx	   l_ground_force_vy	   l_ground_force_vz	   l_ground_force_px	   l_ground_force_py	   l_ground_force_pz	     ground_torque_x	     ground_torque_y	     ground_torque_z	   l_ground_torque_x	   l_ground_torque_y	   l_ground_torque_z	
          0.48000000	         37.43018229	        362.44855920	        -13.69142844	         -0.63826705	          0.00000000	          0.07195349	          0.00000000	          0.00000000	          0.00000000	          0.00000000	          0.00000000	          0.00000000	          0.00000000	          4.30163583	          0.00000000	          0.00000000	          0.00000000	          0.00000000	
          0.48400000	         41.60086893	        374.08902666	        -15.93476617	         -0.63783572	          0.00000000	          0.07235799	          0.00000000	          0.00000000	          0.00000000	          0.00000000	          0.00000000	          0.00000000	          0.00000000	          4.44560087	          0.00000000	          0.00000000	          0.00000000	          0.00000000	
          0.48800000	         45.91681163	        386.56323839	        -18.26689519	         -0.63720429	          0.00000000	          0.07278738	          0.00000000	          0.00000000	          0.00000000	          0.00000000	          0.00000000	          0.00000000	          0.00000000	          4.59118286	          0.00000000	          0.00000000	          0.00000000	          0.00000000	
          0.49200000	         50.29523281	        399.70992980	        -20.48623837	         -0.63613776	          0.00000000	          0.07326574	          0.00000000	          0.00000000	          0.00000000	          0.00000000	          0.00000000	          0.00000000	          0.00000000	          4.77467933	          0.00000000	          0.00000000	          0.00000000	          0.00000000	
          0.49600000	         54.67650915	        413.64273115	        -22.41527480	         -0.63477058	          0.00000000	          0.07372841	          0.00000000	          0.00000000	          0.00000000	          0.00000000	          0.00000000	          0.00000000	          0.00000000	          5.02327096	          0.00000000	          0.00000000	          0.00000000	          0.00000000	
          0.50000000	         59.04612358	        428.60552853	        -23.96694237	         -0.63343927	          0.00000000	          0.07409040	          0.00000000	          0.00000000	          0.00000000	          0.00000000	          0.00000000	          0.00000000	          0.00000000	          5.34623185	          0.00000000	          0.00000000	          0.00000000	          0.00000000	
          0.50400000	         63.38096906	        444.70567058	        -25.20180123	         -0.63229055	          0.00000000	          0.07433786	          0.00000000	          0.00000000	          0.00000000	          0.00000000	          0.00000000	          0.00000000	          0.00000000	          5.72993734	          0.00000000	          0.00000000	          0.00000000	          0.00000000	
          0.50800000	         67.61701627	        461.80299867	        -26.31097717	         -0.63109774	          0.00000000	          0.07454050	          0.00000000	          0.00000000	          0.00000000	          0.00000000	          0.00000000	          0.00000000	          0.00000000	          6.13855048	          0.00000000	          0.00000000	          0.00000000	          0.00000000	
          0.51200000	         71.68133806	        479.64306226	        -27.54619520	         -0.62961813	          0.00000000	          0.07475005	          0.00000000	          0.00000000	          0.00000000	          0.00000000	          0.00000000	          0.00000000	          0.00000000	          6.52083041	          0.00000000	          0.00000000	          0.00000000	          0.00000000	
          0.51600000	         75.52204358	        498.09203328	        -29.13580733	         -0.62783801	          0.00000000	          0.07496040	          0.00000000	          0.00000000	          0.00000000	          0.00000000	          0.00000000	          0.00000000	          0.00000000	          6.82146061	          0.00000000	          0.00000000	          0.00000000	          0.00000000	
          0.52000000	         79.09259578	        517.19752110	        -31.21024897	         -0.62599516	          0.00000000	          0.07510766	          0.00000000	          0.00000000	          0.00000000	          0.00000000	          0.00000000	          0.00000000	          0.00000000	          6.99387259	          0.00000000	          0.00000000	          0.00000000	          0.00000000	
          0.52400000	         82.33436769	        536.96030970	        -33.76608355	         -0.62427726	          0.00000000	          0.07513770	          0.00000000	          0.00000000	          0.00000000	          0.00000000	          0.00000000	          0.00000000	          0.00000000	          7.01141381	          0.00000000	          0.00000000	          0.00000000	          0.00000000	
